<svg width="238" height="44" viewBox="0 0 238 44" fill="none" xmlns="http://www.w3.org/2000/svg">
<path d="M16.6001 0.681523H0.624146V18.6138L11.2587 28.1523V10.7446H16.985C20.5941 10.7446 22.3745 12.5092 22.3745 15.2754V28.5815C22.3745 31.3477 20.6903 33.2077 16.985 33.2077H0.624146V43.3184H16.6001C25.1655 43.3661 33.2016 39.1215 33.2016 29.2969V14.9415C33.2016 5.02152 25.1655 0.681523 16.6001 0.681523ZM100.378 29.3446V14.6554C100.378 9.36152 109.905 8.12152 112.793 13.4631L121.599 9.88614C118.182 2.30306 111.83 0.0615234 106.585 0.0615234C98.0196 0.0615234 89.5504 5.02152 89.5504 14.6554V29.3446C89.5504 39.0261 98.0196 43.9384 106.393 43.9384C111.782 43.9384 118.23 41.2677 121.791 34.3523L112.359 30.0123C110.05 35.9261 100.378 34.4954 100.378 29.3446ZM71.2166 16.6584C67.8963 15.9431 65.6828 14.7508 65.5384 12.7C65.7309 7.73998 73.382 7.59691 77.8572 12.3184L84.9309 6.88152C80.5038 1.49229 75.4993 0.0615234 70.3023 0.0615234C62.4587 0.0615234 54.8557 4.44921 54.8557 12.8431C54.8557 20.9984 61.1113 25.3384 67.9925 26.3877C71.5053 26.8646 75.4031 28.2477 75.3068 30.68C75.0181 35.2584 65.5865 35.02 61.3038 29.8215L54.5189 36.2123C58.5129 41.3154 63.9504 43.9384 69.0512 43.9384C76.8948 43.9384 85.6046 39.4077 85.9414 31.1569C86.4226 20.6646 78.8196 18.0415 71.2166 16.6584ZM39.0241 43.3184H49.8031V0.681523H39.0241V43.3184ZM220.774 0.681523H204.799V18.6138L215.433 28.1523V10.7446H221.111C224.72 10.7446 226.501 12.5092 226.501 15.2754V28.5815C226.501 31.3477 224.817 33.2077 221.111 33.2077H204.75V43.3184H220.726C229.292 43.3661 237.328 39.1215 237.328 29.2969V14.9415C237.376 5.02152 229.34 0.681523 220.774 0.681523ZM142.387 0.0615234C133.532 0.0615234 124.726 4.87845 124.726 14.7031V29.2969C124.726 39.0738 133.58 43.9384 142.483 43.9384C151.337 43.9384 160.143 39.0738 160.143 29.2969V14.7031C160.143 4.92614 151.241 0.0615234 142.387 0.0615234ZM149.316 29.2969C149.316 32.3492 145.851 33.9231 142.435 33.9231C138.97 33.9231 135.505 32.3969 135.505 29.2969V14.7031C135.505 11.5554 138.874 9.88614 142.242 9.88614C145.755 9.88614 149.316 11.4123 149.316 14.7031V29.2969ZM198.783 14.7031C198.543 4.68768 191.71 0.681523 182.904 0.681523H165.821V43.3661H176.744V29.7738H178.669L188.582 43.3184H202.056L190.411 28.6769C195.608 27.0554 198.783 22.62 198.783 14.7031ZM183.096 20.4738H176.744V10.7446H183.096C189.929 10.7446 189.929 20.4738 183.096 20.4738Z" fill="#999999"/>
</svg>
